<svg width="37" height="37" viewBox="0 0 37 37" fill="none" xmlns="http://www.w3.org/2000/svg">
<path d="M19.6559 3.46875C19.6559 3.16209 19.5341 2.868 19.3173 2.65116C19.1005 2.43432 18.8064 2.3125 18.4997 2.3125C18.193 2.3125 17.8989 2.43432 17.6821 2.65116C17.4653 2.868 17.3434 3.16209 17.3434 3.46875V15.5932L16.1872 16.4187V10.915C16.1872 8.71812 14.4066 6.9375 12.2097 6.9375C10.9979 6.9375 9.84401 7.56187 8.87276 8.3065C7.87607 9.07425 6.91407 10.0941 6.06076 11.1486C4.35876 13.2483 2.94582 15.6487 2.40701 16.8836C2.00001 17.8201 1.4982 19.5661 1.12126 21.534C0.739697 23.5158 0.466822 25.8283 0.563947 27.9142C0.656447 29.9191 1.10276 32.0536 2.50182 33.3023C4.0512 34.6898 6.2527 34.5881 8.84038 33.2931L12.9913 31.2188C13.9516 30.7386 14.7592 30.0006 15.3237 29.0873C15.8882 28.174 16.1872 27.1216 16.1872 26.048V24.2812C16.1872 23.9746 16.0654 23.6805 15.8485 23.4637C15.6317 23.2468 15.3376 23.125 15.0309 23.125C14.7243 23.125 14.4302 23.2468 14.2134 23.4637C13.9965 23.6805 13.8747 23.9746 13.8747 24.2812V26.048C13.8747 26.6925 13.6951 27.3243 13.3561 27.8725C13.017 28.4206 12.532 28.8635 11.9553 29.1514L7.8067 31.2257C5.54507 32.3565 4.53451 32.0189 4.04195 31.5772C3.39445 30.9991 2.96201 29.7249 2.87413 27.8078C2.78857 25.9694 3.03138 23.8534 3.39213 21.9688C3.7552 20.0725 4.2177 18.5208 4.52757 17.8062C4.96695 16.7934 6.26195 14.5687 7.85757 12.6031C8.64845 11.6272 9.48326 10.7554 10.2834 10.1403C11.1113 9.50206 11.7611 9.25 12.2097 9.25C12.6513 9.25 13.0748 9.42542 13.387 9.73767C13.6993 10.0499 13.8747 10.4734 13.8747 10.915V18.0699L9.73532 21.0299C9.50319 21.2142 9.35068 21.4805 9.3093 21.774C9.26792 22.0675 9.34083 22.3657 9.51296 22.607C9.68509 22.8483 9.94331 23.0142 10.2343 23.0706C10.5253 23.127 10.8268 23.0695 11.0766 22.9099L18.4997 17.6074L25.9228 22.9099C26.0461 23.0038 26.1869 23.0719 26.337 23.1103C26.4872 23.1486 26.6434 23.1564 26.7966 23.1332C26.9498 23.11 27.0967 23.0562 27.2287 22.9751C27.3607 22.894 27.475 22.7871 27.5649 22.661C27.6548 22.5348 27.7185 22.3918 27.7521 22.2406C27.7856 22.0894 27.7885 21.9329 27.7604 21.7806C27.7323 21.6282 27.6739 21.483 27.5887 21.3537C27.5034 21.2243 27.393 21.1134 27.2641 21.0276L23.1247 18.0699V10.915C23.1247 10.4734 23.3001 10.0499 23.6124 9.73767C23.9246 9.42542 24.3481 9.25 24.7897 9.25C25.2383 9.25 25.8881 9.50438 26.716 10.1403C27.5161 10.7554 28.3486 11.6273 29.1441 12.6054C30.7351 14.5711 32.0301 16.7934 32.4718 17.8062C32.7817 18.5208 33.2442 20.0725 33.6073 21.9688C33.968 23.8511 34.2085 25.9694 34.1253 27.8078C34.0374 29.7249 33.6073 30.9991 32.9574 31.5772C32.4649 32.0166 31.4543 32.3565 29.1927 31.2257L25.0418 29.1514C24.4655 28.8632 23.981 28.4202 23.6424 27.872C23.3038 27.3239 23.1245 26.6923 23.1247 26.048V24.2812C23.1247 23.9746 23.0029 23.6805 22.786 23.4637C22.5692 23.2468 22.2751 23.125 21.9684 23.125C21.6618 23.125 21.3677 23.2468 21.1509 23.4637C20.934 23.6805 20.8122 23.9746 20.8122 24.2812V26.048C20.8122 27.1216 21.1112 28.174 21.6757 29.0873C22.2402 30.0006 23.0478 30.7386 24.0081 31.2188L28.159 33.2931C30.749 34.5881 32.9459 34.6875 34.4976 33.3023C35.8966 32.0536 36.3429 29.9191 36.4354 27.9142C36.5326 25.8283 36.2597 23.5158 35.8804 21.534C35.5012 19.5638 35.0017 17.8201 34.5901 16.8813C34.0536 15.6487 32.6406 13.2483 30.9386 11.1486C30.083 10.0941 29.1233 9.07425 28.1266 8.3065C27.1554 7.56187 26.0014 6.9375 24.7897 6.9375C22.5928 6.9375 20.8122 8.71812 20.8122 10.915V16.4187L19.6559 15.5932V3.46875Z" fill="white"/>
</svg>
