<svg width="27" height="27" viewBox="0 0 27 27" fill="none" xmlns="http://www.w3.org/2000/svg">
<path d="M23.445 8.325L25.0312 6.75L20.25 1.96875L18.675 3.555L20.25 5.1525L18.675 6.75L16.2788 4.35375L14.6925 2.75625L13.1062 4.35375L13.8938 5.1525L3.375 15.66C3.01851 16.0154 2.79152 16.4802 2.73034 16.9799C2.66915 17.4795 2.77731 17.9853 3.0375 18.4163L4.5 20.88L1.96875 23.445L3.555 25.0312L6.12 22.5L8.58375 23.9737C8.92447 24.176 9.31256 24.2846 9.70875 24.2887C10.0113 24.2935 10.3117 24.2372 10.592 24.1231C10.8723 24.0091 11.1267 23.8396 11.34 23.625L21.8475 13.1175L22.6462 13.905L24.2437 12.3187L22.6462 10.7212L20.25 8.325L21.8475 6.75L23.445 8.325ZM20.25 11.5087L9.7425 22.0275L6.75 20.25L4.9725 17.2575L5.94 16.2788L9.12375 19.4625L10.7212 17.8763L7.5375 14.6925L9.12375 13.1062L12.3075 16.2788L13.8938 14.6925L10.71 11.5087L12.3075 9.9225L15.4913 13.1062L17.0775 11.5087L13.8938 8.325L15.4913 6.75L20.25 11.5087Z" fill="white"/>
</svg>
