<svg width="25" height="23" viewBox="0 0 25 23" fill="none" xmlns="http://www.w3.org/2000/svg">
<path d="M12.4207 6.53723C15.6893 6.53723 18.3042 9.15212 18.3042 12.4207C18.3042 15.6893 15.6893 18.3042 12.4207 18.3042C9.15212 18.3042 6.53723 15.6893 6.53723 12.4207C6.53723 9.15212 9.15212 6.53723 12.4207 6.53723ZM12.4207 7.84467C11.2071 7.84467 10.0431 8.32679 9.18497 9.18497C8.32679 10.0431 7.84467 11.2071 7.84467 12.4207C7.84467 13.6344 8.32679 14.7983 9.18497 15.6565C10.0431 16.5147 11.2071 16.9968 12.4207 16.9968C13.6344 16.9968 14.7983 16.5147 15.6565 15.6565C16.5147 14.7983 16.9968 13.6344 16.9968 12.4207C16.9968 11.2071 16.5147 10.0431 15.6565 9.18497C14.7983 8.32679 13.6344 7.84467 12.4207 7.84467ZM3.92234 2.61489H6.53723L9.15212 0H15.6893L18.3042 2.61489H20.9191C21.9594 2.61489 22.9571 3.02814 23.6926 3.76372C24.4282 4.4993 24.8415 5.49696 24.8415 6.53723V18.3042C24.8415 19.3445 24.4282 20.3422 23.6926 21.0777C22.9571 21.8133 21.9594 22.2266 20.9191 22.2266H3.92234C2.88207 22.2266 1.88441 21.8133 1.14883 21.0777C0.413245 20.3422 0 19.3445 0 18.3042V6.53723C0 5.49696 0.413245 4.4993 1.14883 3.76372C1.88441 3.02814 2.88207 2.61489 3.92234 2.61489ZM9.68817 1.30745L7.07328 3.92234H3.92234C3.22882 3.92234 2.56372 4.19783 2.07333 4.68822C1.58294 5.17861 1.30745 5.84372 1.30745 6.53723V18.3042C1.30745 18.9977 1.58294 19.6629 2.07333 20.1532C2.56372 20.6436 3.22882 20.9191 3.92234 20.9191H20.9191C21.6126 20.9191 22.2777 20.6436 22.7681 20.1532C23.2585 19.6629 23.534 18.9977 23.534 18.3042V6.53723C23.534 5.84372 23.2585 5.17861 22.7681 4.68822C22.2777 4.19783 21.6126 3.92234 20.9191 3.92234H17.7682L15.1533 1.30745H9.68817Z" fill="black" fill-opacity="0.5"/>
</svg>
