<svg width="20" height="20" viewBox="0 0 20 20" fill="none" xmlns="http://www.w3.org/2000/svg">
<path fill-rule="evenodd" clip-rule="evenodd" d="M9.592 19.992C4.2585 19.778 0 15.386 0 10C0 4.477 4.477 0 10 0C15.523 0 20 4.477 20 10C20 15.523 15.523 20 10 20H9.863C9.77233 20 9.682 19.9973 9.592 19.992ZM3.583 16.31C3.50823 16.0953 3.48278 15.8665 3.50854 15.6406C3.5343 15.4147 3.6106 15.1975 3.73179 15.0051C3.85298 14.8128 4.01593 14.6502 4.20856 14.5294C4.40119 14.4086 4.61855 14.3328 4.8445 14.3075C8.7425 13.876 11.2815 13.915 15.1605 14.3165C15.3868 14.3401 15.6046 14.4149 15.7976 14.5354C15.9905 14.6559 16.1534 14.8189 16.2739 15.0119C16.3943 15.2048 16.4691 15.4227 16.4927 15.649C16.5162 15.8753 16.4877 16.1039 16.4095 16.3175C18.0721 14.6355 19.0031 12.365 19 10C19 5.0295 14.9705 1 10 1C5.0295 1 1 5.0295 1 10C1 12.458 1.9855 14.686 3.583 16.31Z" fill="#565656" fill-opacity="0.4"/>
</svg>
