<svg width="12" height="10" viewBox="0 0 12 10" fill="none" xmlns="http://www.w3.org/2000/svg">
<path d="M2.05008 0.00203924L0.263087 0.201089C0.0984955 0.219422 -0.016422 0.363149 0.00191152 0.527741L0.200961 2.31474C0.209473 2.39116 0.247376 2.4643 0.312052 2.51066L7.44026 8.21539L9.39908 5.76549L2.27152 0.0666419C2.20619 0.0144068 2.13238 -0.0071275 2.05008 0.00203924ZM9.33485 9.7302C9.3953 9.77864 9.46471 9.81468 9.53911 9.83626C9.6135 9.85783 9.69143 9.86453 9.76841 9.85595C9.8454 9.84737 9.91994 9.8237 9.98777 9.78628C10.0556 9.74886 10.1154 9.69843 10.1637 9.63788L11.386 8.10915C11.4344 8.0487 11.4705 7.97929 11.492 7.90489C11.5136 7.83049 11.5203 7.75257 11.5117 7.67558C11.5032 7.5986 11.4795 7.52406 11.4421 7.45623C11.4046 7.3884 11.3542 7.32862 11.2937 7.28031L10.0981 6.32441L8.1393 8.7743L9.33485 9.7302Z" fill="black" fill-opacity="0.6"/>
</svg>
