<svg width="24" height="24" viewBox="0 0 24 24" fill="none" xmlns="http://www.w3.org/2000/svg">
<g clip-path="url(#clip0_309_1597)">
<path d="M18.3289 11.58C17.6989 9.57998 16.8189 7.58098 16.0689 5.71198C14.9989 2.91198 14.6189 2.44198 10.7699 4.00198C6.5409 5.70198 3.4619 6.73198 0.781898 8.56098C0.734424 8.59506 0.695959 8.64018 0.669825 8.69245C0.643691 8.74471 0.630674 8.80256 0.631898 8.86098C0.583274 8.83217 0.5275 8.81768 0.471 8.81917C0.4145 8.82067 0.359573 8.8381 0.312545 8.86945C0.265518 8.90081 0.228304 8.9448 0.205189 8.99638C0.182075 9.04796 0.174001 9.10502 0.181898 9.16098C0.691898 13 2.2319 16.629 3.4619 20.218C3.7419 21.028 4.8519 23.788 5.7619 23.968C6.6719 24.148 7.4909 23.528 8.1309 23.328C10.183 22.6539 12.1872 21.842 14.1299 20.898C15.9399 20.058 19.2779 19.378 19.7579 18.268C20.1479 17.329 19.9379 16.999 18.3279 11.58M18.6879 17.809C18.5279 18.159 14.6879 19.379 13.6379 19.869C11.7454 20.8086 9.79939 21.6364 7.8099 22.348C7.2361 22.6394 6.62802 22.8578 5.9999 22.998C4.9099 22.088 2.1809 14.28 1.9109 13.46C1.42156 12.0526 1.04701 10.6079 0.790898 9.13998C1.1909 9.38998 1.7109 8.44098 5.4009 6.98098C12.1189 4.47098 12.1889 4.41098 13.0989 4.20098C13.4243 4.11182 13.7618 4.0747 14.0989 4.09098C14.5707 4.67895 14.9116 5.36079 15.0989 6.09098C15.8389 8.00098 16.6679 10.001 17.2579 11.911C18.7979 17.239 18.9079 17.299 18.6879 17.809Z" fill="black" fill-opacity="0.7"/>
<path d="M16.6889 13.05C16.3587 12.0058 15.9544 10.9865 15.4789 9.99998C14.7089 8.35098 14.4789 6.40098 13.6089 5.87198C13.1389 5.58198 12.7589 5.87198 12.4689 5.98198C8.41194 7.34198 5.11294 8.32998 2.57294 9.87998C2.52724 9.90628 2.48929 9.94417 2.4629 9.98981C2.4365 10.0355 2.42261 10.0873 2.42261 10.14C2.42261 10.1927 2.4365 10.2445 2.4629 10.2901C2.48929 10.3358 2.52724 10.3737 2.57294 10.4C4.21294 16.228 3.80294 15.868 4.78294 17.888C5.62294 19.618 5.57294 19.608 15.4799 15.428C16.0714 15.2938 16.5877 14.9353 16.9199 14.428C17.1499 13.918 16.7899 13.388 16.6899 13.049M15.3199 12.599C14.3199 12.139 13.3999 11.479 12.3899 10.889C12.8373 10.1863 13.3339 9.51965 13.8799 8.88898C14.3699 10.469 14.6599 10.739 15.3199 12.599ZM3.23194 10.21C4.09994 9.74331 4.99661 9.33998 5.92194 8.99998C6.85194 8.65998 12.6899 6.89098 13.0799 6.69098C13.3479 7.09798 13.5349 7.55298 13.6299 8.03098C12.7404 8.62545 12.0724 9.49737 11.7299 10.511C10.2099 9.74098 8.72994 9.37098 7.44094 10.511C6.15094 11.651 5.61094 12.91 4.61094 14.93C3.64094 11.24 4.00094 12.51 3.23094 10.21M15.6179 14.12C15.0579 14.41 17.9079 13.12 7.30994 17.649C7.07994 17.749 6.12994 18.149 5.91994 18.029C5.4945 17.3376 5.15849 16.595 4.91994 15.819C5.64248 14.517 6.47555 13.2794 7.40994 12.12C8.60994 10.94 8.96994 10.63 10.8099 11.28C12.6499 11.93 13.8089 12.95 15.6779 13.47C15.7379 13.67 15.7179 14.06 15.6179 14.12ZM16.5899 16.61C16.1096 16.6286 15.6374 16.7407 15.1999 16.94C14.2275 17.2924 13.3215 17.8063 12.5199 18.46C12.4702 18.4933 12.4316 18.5407 12.409 18.5961C12.3863 18.6515 12.3807 18.7124 12.3928 18.771C12.405 18.8296 12.4343 18.8832 12.477 18.9251C12.5198 18.967 12.5741 18.9951 12.6329 19.006C12.672 19.0136 12.7122 19.0134 12.7512 19.0053C12.7901 18.9972 12.8271 18.9815 12.8599 18.959C13.5517 18.5931 14.2665 18.2728 14.9999 18C15.5262 17.723 16.0708 17.4824 16.6299 17.28C16.6914 17.2866 16.7536 17.2762 16.8096 17.2501C16.8656 17.2239 16.9134 17.1829 16.9478 17.1315C16.9822 17.0801 17.0019 17.0203 17.0048 16.9585C17.0076 16.8967 16.9935 16.8353 16.9639 16.781C16.9287 16.7157 16.873 16.6638 16.8055 16.6331C16.738 16.6024 16.6623 16.5936 16.5899 16.61Z" fill="black" fill-opacity="0.7"/>
<path d="M23.798 4.84201C23.658 1.94201 23.678 1.84201 23.558 1.49201C23.5003 1.28552 23.385 1.09972 23.2257 0.956288C23.0663 0.812861 22.8694 0.717731 22.658 0.682007C22.568 0.682007 22.908 0.682007 15.019 0.0820071C13.307 -0.0514776 11.5863 -0.021341 9.88001 0.172007C8.00001 0.472007 7.47101 1.00201 7.71001 2.93201C7.75101 3.32101 7.84901 3.70201 8.00001 4.06201C8.01577 4.09812 8.03849 4.13078 8.06687 4.15811C8.09524 4.18544 8.12873 4.20692 8.16541 4.22131C8.20209 4.23571 8.24124 4.24273 8.28064 4.242C8.32003 4.24126 8.3589 4.23277 8.39501 4.21701C8.43112 4.20125 8.46378 4.17853 8.49111 4.15015C8.51845 4.12177 8.53992 4.08829 8.55432 4.05161C8.56871 4.01493 8.57574 3.97577 8.575 3.93638C8.57426 3.89698 8.56577 3.85812 8.55001 3.82201C8.23491 3.06313 8.21706 2.21345 8.50001 1.44201C9.18001 0.512007 14.27 1.00201 15 1.09201C15.1 1.09201 22.518 1.86201 22.538 1.99201C22.558 2.12201 22.718 4.93201 22.718 4.99201C22.868 6.06201 22.578 11.18 22.538 12.28C22.5867 13.3907 22.57 14.5007 22.488 15.61C22.268 15.77 21.928 15.69 20.708 15.55C20.6218 15.5235 20.5286 15.5323 20.4489 15.5745C20.3692 15.6167 20.3095 15.6888 20.283 15.775C20.2565 15.8612 20.2653 15.9544 20.3075 16.0341C20.3497 16.1138 20.4218 16.1735 20.508 16.2C22.068 16.45 22.508 16.54 22.928 16.2C23.348 15.86 23.268 15.36 23.308 15.03C23.468 10.3 23.928 6.17101 23.798 4.84201Z" fill="black" fill-opacity="0.7"/>
<path d="M20.9981 11.26C21.4081 10.93 21.3081 10.11 21.3181 9.8C21.3181 8.43101 21.2481 7.421 21.2081 6.291C21.2511 5.474 21.2281 4.655 21.1381 3.842C20.8981 2.772 20.0581 2.962 19.4781 2.922C18.3683 2.76318 17.2399 2.79022 16.1391 3.002C16.0608 3.0219 15.9937 3.07205 15.9524 3.14144C15.9112 3.21083 15.8992 3.29377 15.9191 3.372C15.9389 3.45024 15.9891 3.51738 16.0585 3.55863C16.1279 3.59989 16.2108 3.6119 16.2891 3.592C17.5091 3.312 20.1691 4.062 20.0791 3.932C20.1291 9.14101 20.3191 7.082 20.4791 10.651C20.2391 10.851 19.7091 10.771 19.2691 10.781C19.1876 10.7949 19.1137 10.8372 19.0605 10.9003C19.0072 10.9635 18.978 11.0434 18.978 11.126C18.978 11.2086 19.0072 11.2886 19.0605 11.3517C19.1137 11.4148 19.1876 11.4571 19.2691 11.471C19.8591 11.491 20.4791 11.701 20.9991 11.261" fill="black" fill-opacity="0.7"/>
</g>
<defs>
<clipPath id="clip0_309_1597">
<rect width="24" height="24" fill="white"/>
</clipPath>
</defs>
</svg>
