<svg width="20" height="20" viewBox="0 0 20 20" fill="none" xmlns="http://www.w3.org/2000/svg">
<path d="M3.61623 14.8591C2.32905 14.7382 1.24775 13.7964 1.06922 12.5177C0.638823 9.46042 0.643671 6.35759 1.08362 3.30168C1.25639 2.10649 2.23258 1.20361 3.43338 1.07833C5.53216 0.85871 7.64099 0.74912 9.75123 0.750005C11.9124 0.750005 13.9958 0.872405 16.0259 1.08121C16.6197 1.13741 17.1775 1.39087 17.6104 1.80115C18.0434 2.21144 18.3265 2.75492 18.4145 3.34488C18.6355 4.88595 18.7476 6.44069 18.75 7.99752C18.75 9.57576 18.6161 11.1094 18.4059 12.5998C18.3181 13.2011 18.0313 13.7556 17.5912 14.1746C17.1511 14.5936 16.5832 14.8529 15.9784 14.911C13.8585 15.1321 11.7286 15.2436 9.59717 15.245C8.08682 16.9817 6.92922 17.8414 4.90629 18.75V14.9772L3.92723 14.8879L3.61623 14.8591Z" stroke="#565656" stroke-width="1.5" stroke-linecap="round" stroke-linejoin="round"/>
<path d="M9.7511 8.6383C9.7511 8.15446 10.1456 7.85782 10.8396 7.39414C11.4846 6.96214 11.8244 6.40486 11.6732 5.64454C11.5926 5.26678 11.4043 4.92043 11.1312 4.64729C10.8581 4.37414 10.5118 4.18587 10.1341 4.10518C9.85047 4.05224 9.5587 4.06198 9.27924 4.13373C8.99978 4.20547 8.73939 4.33749 8.51634 4.52051C8.29328 4.70354 8.11295 4.93314 7.98799 5.19323C7.86303 5.45333 7.79647 5.7376 7.79297 6.02614M9.7511 11.9906V11.6306" stroke="#565656" stroke-width="1.5" stroke-linecap="round" stroke-linejoin="round"/>
</svg>
