<svg width="32" height="30" viewBox="0 0 32 30" fill="none" xmlns="http://www.w3.org/2000/svg">
<path d="M30.9078 13.807L26.0397 9.14977V2.0826C26.0397 1.80643 25.93 1.54157 25.7347 1.34629C25.5394 1.15101 25.2746 1.0413 24.9984 1.0413H21.8745C21.5983 1.0413 21.3335 1.15101 21.1382 1.34629C20.9429 1.54157 20.8332 1.80643 20.8332 2.0826V4.1652L17.0637 0.561C16.7109 0.204355 16.1864 0 15.6195 0C15.0546 0 14.5314 0.204355 14.1786 0.561651L0.335844 13.8057C-0.0689615 14.1962 -0.119725 14.8385 0.248635 15.2616C0.341136 15.3683 0.454397 15.4552 0.581525 15.5168C0.708653 15.5784 0.846989 15.6135 0.988115 15.62C1.12924 15.6264 1.2702 15.6041 1.40242 15.5543C1.53464 15.5046 1.65536 15.4284 1.75722 15.3305L15.2616 2.42623C15.3585 2.33354 15.4874 2.28181 15.6215 2.28181C15.7556 2.28181 15.8845 2.33354 15.9814 2.42623L29.487 15.3305C29.686 15.5213 29.9525 15.6254 30.2281 15.6201C30.5036 15.6147 30.7659 15.5003 30.9572 15.3019C31.3568 14.888 31.3236 14.2046 30.9078 13.807Z" fill="#565656" fill-opacity="0.8"/>
<path d="M15.4726 5.35243C15.3757 5.25974 15.2468 5.20801 15.1127 5.20801C14.9786 5.20801 14.8497 5.25974 14.7528 5.35243L2.77135 16.7983C2.72046 16.8469 2.67998 16.9054 2.65235 16.9702C2.62472 17.035 2.61052 17.1047 2.61059 17.1751L2.60864 27.9174C2.60864 28.4697 2.82806 28.9995 3.21862 29.39C3.60919 29.7806 4.1389 30 4.69124 30H10.9456C11.2217 30 11.4866 29.8903 11.6819 29.695C11.8771 29.4997 11.9869 29.2349 11.9869 28.9587V20.1077C11.9869 19.9696 12.0417 19.8371 12.1393 19.7395C12.237 19.6419 12.3694 19.587 12.5075 19.587H17.714C17.8521 19.587 17.9845 19.6419 18.0822 19.7395C18.1798 19.8371 18.2347 19.9696 18.2347 20.1077V28.9587C18.2347 29.2349 18.3444 29.4997 18.5396 29.695C18.7349 29.8903 18.9998 30 19.276 30H25.5277C26.08 30 26.6097 29.7806 27.0003 29.39C27.3908 28.9995 27.6103 28.4697 27.6103 27.9174V17.1751C27.6103 17.1047 27.5961 17.035 27.5685 16.9702C27.5409 16.9054 27.5004 16.8469 27.4495 16.7983L15.4726 5.35243Z" fill="#565656" fill-opacity="0.8"/>
</svg>
