<svg width="10" height="13" viewBox="0 0 10 13" fill="none" xmlns="http://www.w3.org/2000/svg">
<path fill-rule="evenodd" clip-rule="evenodd" d="M7.08341 5.20001C7.08341 5.77464 6.86392 6.32574 6.47322 6.73207C6.08252 7.1384 5.55262 7.36667 5.00008 7.36667C4.44755 7.36667 3.91764 7.1384 3.52694 6.73207C3.13624 6.32574 2.91675 5.77464 2.91675 5.20001C2.91675 4.62537 3.13624 4.07427 3.52694 3.66794C3.91764 3.26161 4.44755 3.03334 5.00008 3.03334C5.55262 3.03334 6.08252 3.26161 6.47322 3.66794C6.86392 4.07427 7.08341 4.62537 7.08341 5.20001ZM6.25008 5.20001C6.24997 5.5449 6.11813 5.87563 5.88355 6.11943C5.64897 6.36322 5.33088 6.50012 4.99925 6.50001C4.66762 6.49989 4.34961 6.36277 4.11519 6.11881C3.88077 5.87485 3.74914 5.54404 3.74925 5.19914C3.74936 4.85424 3.8812 4.52352 4.11578 4.27972C4.35036 4.03592 4.66845 3.89903 5.00008 3.89914C5.33171 3.89926 5.64972 4.03638 5.88414 4.28034C6.11856 4.52429 6.25019 4.85511 6.25008 5.20001Z" fill="black" fill-opacity="0.4"/>
<path fill-rule="evenodd" clip-rule="evenodd" d="M10 5.2C10 9.1 5.83333 13 5 13C4.16667 13 0 9.1 0 5.2C0 2.33133 2.24167 0 5 0C7.75833 0 10 2.33133 10 5.2ZM9.16667 5.2C9.16667 6.85533 8.26667 8.61467 7.16667 10.0187C6.6275 10.7068 6.06667 11.2753 5.60833 11.6567C5.41748 11.8206 5.2137 11.9676 4.99917 12.0961L4.95583 12.0718C4.75714 11.9485 4.56771 11.8097 4.38917 11.6567C3.92917 11.2701 3.3725 10.7033 2.83083 10.0187C1.73083 8.61467 0.830833 6.85533 0.830833 5.2C0.830833 2.808 2.6975 0.866667 4.9975 0.866667C7.2975 0.866667 9.16417 2.808 9.16417 5.2H9.16667Z" fill="black" fill-opacity="0.4"/>
</svg>
