<svg width="16" height="20" viewBox="0 0 16 20" fill="none" xmlns="http://www.w3.org/2000/svg">
<path d="M13.38 7.27H12.28V4.34C12.28 3.18896 11.8228 2.08506 11.0088 1.27116C10.1949 0.457249 9.09104 0 7.94 0C6.78896 0 5.68506 0.457249 4.87116 1.27116C4.05725 2.08506 3.6 3.18896 3.6 4.34V7.27H2.5C1.83696 7.27 1.20107 7.53339 0.732233 8.00223C0.263392 8.47107 0 9.10696 0 9.77V17.38C0.00184718 18.0425 0.265832 18.6773 0.734273 19.1457C1.20271 19.6142 1.83753 19.8782 2.5 19.88H13.38C14.0425 19.8782 14.6773 19.6142 15.1457 19.1457C15.6142 18.6773 15.8782 18.0425 15.88 17.38V9.77C15.88 9.10696 15.6166 8.47107 15.1478 8.00223C14.6789 7.53339 14.043 7.27 13.38 7.27ZM4.6 4.34C4.6 3.45418 4.95189 2.60463 5.57826 1.97826C6.20464 1.35189 7.05418 1 7.94 1C8.82582 1 9.67537 1.35189 10.3017 1.97826C10.9281 2.60463 11.28 3.45418 11.28 4.34V7.27H4.6V4.34ZM14.88 17.38C14.8774 17.777 14.7185 18.157 14.4378 18.4378C14.157 18.7185 13.777 18.8774 13.38 18.88H2.5C2.10298 18.8774 1.72297 18.7185 1.44224 18.4378C1.1615 18.157 1.00262 17.777 1 17.38V9.77C1 9.37218 1.15804 8.99064 1.43934 8.70934C1.72064 8.42803 2.10218 8.27 2.5 8.27H13.38C13.7778 8.27 14.1594 8.42803 14.4407 8.70934C14.722 8.99064 14.88 9.37218 14.88 9.77V17.38Z" fill="#565656" fill-opacity="0.4"/>
</svg>
