<svg width="27" height="27" viewBox="0 0 27 27" fill="none" xmlns="http://www.w3.org/2000/svg">
<path d="M12.375 2.25V4.5M5.625 2.25V4.5M5.625 3.375H4.5C3.90326 3.375 3.33097 3.61205 2.90901 4.03401C2.48705 4.45597 2.25 5.02826 2.25 5.625V10.125C2.25 11.9152 2.96116 13.6321 4.22703 14.898C5.4929 16.1638 7.20979 16.875 9 16.875C10.7902 16.875 12.5071 16.1638 13.773 14.898C15.0388 13.6321 15.75 11.9152 15.75 10.125V5.625C15.75 5.02826 15.5129 4.45597 15.091 4.03401C14.669 3.61205 14.0967 3.375 13.5 3.375H12.375" stroke="white" stroke-width="2" stroke-linecap="round" stroke-linejoin="round"/>
<path d="M9 16.875C9 18.6652 9.71116 20.3821 10.977 21.648C12.2429 22.9138 13.9598 23.625 15.75 23.625C17.5402 23.625 19.2571 22.9138 20.523 21.648C21.7888 20.3821 22.5 18.6652 22.5 16.875V13.5" stroke="white" stroke-width="2" stroke-linecap="round" stroke-linejoin="round"/>
<path d="M22.5 13.5C23.7426 13.5 24.75 12.4926 24.75 11.25C24.75 10.0074 23.7426 9 22.5 9C21.2574 9 20.25 10.0074 20.25 11.25C20.25 12.4926 21.2574 13.5 22.5 13.5Z" stroke="white" stroke-width="2" stroke-linecap="round" stroke-linejoin="round"/>
</svg>
