<svg width="40" height="40" viewBox="0 0 40 40" fill="none" xmlns="http://www.w3.org/2000/svg">
<path d="M20 30V8.33335M20 8.33335C20 7.56639 20.1764 6.80971 20.5156 6.12183C20.8548 5.43396 21.3477 4.83333 21.9561 4.36643C22.5646 3.89952 23.2723 3.57884 24.0245 3.42921C24.7767 3.27958 25.5533 3.305 26.2941 3.50351C27.0349 3.70201 27.7202 4.06828 28.2968 4.57398C28.8734 5.07968 29.326 5.71125 29.6194 6.41984C29.9129 7.12842 30.0395 7.89503 29.9893 8.66034C29.9391 9.42565 29.7135 10.1692 29.33 10.8333M20 8.33335C20 7.56639 19.8236 6.80971 19.4844 6.12183C19.1452 5.43396 18.6523 4.83333 18.0439 4.36643C17.4354 3.89952 16.7277 3.57884 15.9755 3.42921C15.2233 3.27958 14.4467 3.305 13.7059 3.50351C12.9651 3.70201 12.2798 4.06828 11.7032 4.57398C11.1266 5.07968 10.674 5.71125 10.3806 6.41984C10.0871 7.12842 9.96053 7.89503 10.0107 8.66034C10.0609 9.42565 10.2865 10.1692 10.67 10.8333M25 21.6667C23.558 21.2452 22.2914 20.3677 21.39 19.1658C20.4886 17.964 20.0009 16.5024 20 15C19.9991 16.5024 19.5114 17.964 18.61 19.1658C17.7086 20.3677 16.442 21.2452 15 21.6667" stroke="white" stroke-width="3.33333" stroke-linecap="round" stroke-linejoin="round"/>
<path d="M29.9951 8.54166C30.9748 8.79355 31.8843 9.26507 32.6547 9.92051C33.4252 10.5759 34.0364 11.3981 34.442 12.3247C34.8477 13.2514 35.0372 14.2581 34.9961 15.2688C34.9551 16.2795 34.6846 17.2676 34.2051 18.1583" stroke="white" stroke-width="3.33333" stroke-linecap="round" stroke-linejoin="round"/>
<path d="M30 30C31.4675 30 32.894 29.5157 34.0582 28.6223C35.2225 27.7289 36.0594 26.4763 36.4392 25.0588C36.819 23.6413 36.7205 22.1381 36.159 20.7823C35.5974 19.4265 34.6042 18.2938 33.3333 17.56" stroke="white" stroke-width="3.33333" stroke-linecap="round" stroke-linejoin="round"/>
<path d="M33.2784 29.1384C33.3952 30.0421 33.3255 30.9602 33.0736 31.8359C32.8217 32.7116 32.3929 33.5264 31.8138 34.23C31.2346 34.9335 30.5174 35.5108 29.7064 35.9263C28.8954 36.3418 28.0078 36.5866 27.0985 36.6456C26.1891 36.7046 25.2773 36.5766 24.4194 36.2694C23.5615 35.9622 22.7757 35.4824 22.1105 34.8596C21.4453 34.2369 20.9148 33.4843 20.5518 32.6485C20.1888 31.8126 20.0011 30.9113 20.0001 30C19.9991 30.9113 19.8113 31.8126 19.4484 32.6485C19.0854 33.4843 18.5549 34.2369 17.8897 34.8596C17.2245 35.4824 16.4386 35.9622 15.5807 36.2694C14.7228 36.5766 13.811 36.7046 12.9017 36.6456C11.9924 36.5866 11.1048 36.3418 10.2938 35.9263C9.48276 35.5108 8.76553 34.9335 8.18639 34.23C7.60724 33.5264 7.17847 32.7116 6.92656 31.8359C6.67464 30.9602 6.60494 30.0421 6.72174 29.1384" stroke="white" stroke-width="3.33333" stroke-linecap="round" stroke-linejoin="round"/>
<path d="M10.0001 30C8.53261 30 7.10613 29.5157 5.94189 28.6223C4.77766 27.7289 3.94073 26.4763 3.56091 25.0588C3.18109 23.6413 3.27959 22.1381 3.84114 20.7823C4.4027 19.4265 5.39592 18.2938 6.66678 17.56" stroke="white" stroke-width="3.33333" stroke-linecap="round" stroke-linejoin="round"/>
<path d="M10.0053 8.54166C9.02562 8.79355 8.11613 9.26507 7.34567 9.92051C6.57522 10.5759 5.96402 11.3981 5.55836 12.3247C5.1527 13.2514 4.96322 14.2581 5.00427 15.2688C5.04532 16.2795 5.31582 17.2676 5.79529 18.1583" stroke="white" stroke-width="3.33333" stroke-linecap="round" stroke-linejoin="round"/>
</svg>
