<svg width="17" height="18" viewBox="0 0 17 18" fill="none" xmlns="http://www.w3.org/2000/svg">
<path d="M13.2444 8.15136C13.7337 12.7209 15.6579 14.1024 15.6579 14.1024H0.5C0.5 14.1024 3.02632 12.289 3.02632 5.94096C3.02632 4.49826 3.55853 3.11421 4.50589 2.09403C5.45326 1.07385 6.74 0.5 8.07895 0.5C8.36358 0.5 8.64428 0.525504 8.92105 0.576513M9.53579 16.6529C9.38774 16.9105 9.17524 17.1244 8.91956 17.2731C8.66388 17.4217 8.374 17.5 8.07895 17.5C7.78389 17.5 7.49401 17.4217 7.23834 17.2731C6.98266 17.1244 6.77016 16.9105 6.62211 16.6529M13.9737 5.6009C14.6437 5.6009 15.2863 5.3322 15.7601 4.85389C16.2338 4.37559 16.5 3.72687 16.5 3.05045C16.5 2.37403 16.2338 1.72531 15.7601 1.24701C15.2863 0.768708 14.6437 0.5 13.9737 0.5C13.3037 0.5 12.6611 0.768708 12.1873 1.24701C11.7135 1.72531 11.4474 2.37403 11.4474 3.05045C11.4474 3.72687 11.7135 4.37559 12.1873 4.85389C12.6611 5.3322 13.3037 5.6009 13.9737 5.6009Z" stroke="white" stroke-linecap="round" stroke-linejoin="round"/>
</svg>
