<svg width="20" height="20" viewBox="0 0 20 20" fill="none" xmlns="http://www.w3.org/2000/svg">
<path d="M10 14.9578C10.1941 14.9578 10.3567 14.8922 10.4878 14.7611C10.6181 14.63 10.6833 14.4674 10.6833 14.2733C10.6833 14.08 10.6178 13.9178 10.4867 13.7867C10.3556 13.6556 10.1933 13.5896 10 13.5889C9.80667 13.5881 9.64445 13.6537 9.51333 13.7856C9.38222 13.9174 9.31667 14.0796 9.31667 14.2722C9.31667 14.4648 9.38222 14.6274 9.51333 14.76C9.64445 14.8926 9.80667 14.9593 10 14.9578ZM10 11.2811C10.1585 11.2811 10.2907 11.2278 10.3967 11.1211C10.5026 11.0144 10.5556 10.8826 10.5556 10.7256V5.17C10.5556 5.01222 10.5022 4.88037 10.3956 4.77444C10.2889 4.66852 10.1567 4.61518 9.99889 4.61444C9.84111 4.6137 9.70926 4.66704 9.60333 4.77444C9.49741 4.88185 9.44444 5.0137 9.44444 5.17V10.7256C9.44444 10.8826 9.49778 11.0144 9.60444 11.1211C9.71111 11.2278 9.84333 11.2811 10.0011 11.2811M10.0033 20C8.62037 20 7.32037 19.7378 6.10333 19.2133C4.8863 18.6881 3.82741 17.9756 2.92667 17.0756C2.02593 16.1756 1.31296 15.1178 0.787778 13.9022C0.262593 12.6867 0 11.387 0 10.0033C0 8.61963 0.262593 7.31963 0.787778 6.10333C1.31222 4.8863 2.0237 3.82741 2.92222 2.92667C3.82074 2.02593 4.87889 1.31296 6.09667 0.787778C7.31445 0.262593 8.61444 0 9.99667 0C11.3789 0 12.6789 0.262593 13.8967 0.787778C15.1137 1.31222 16.1726 2.02407 17.0733 2.92333C17.9741 3.82259 18.687 4.88074 19.2122 6.09778C19.7374 7.31481 20 8.61444 20 9.99667C20 11.3789 19.7378 12.6789 19.2133 13.8967C18.6889 15.1144 17.9763 16.1733 17.0756 17.0733C16.1748 17.9733 15.117 18.6863 13.9022 19.2122C12.6874 19.7381 11.3878 20.0007 10.0033 20Z" fill="#E2C800"/>
</svg>
