<svg width="31" height="31" viewBox="0 0 31 31" fill="none" xmlns="http://www.w3.org/2000/svg">
<path d="M1.23999 25.7399C1.23999 23.8834 1.97749 22.1029 3.29024 20.7901C4.603 19.4774 6.38347 18.7399 8.23999 18.7399H22.24C24.0965 18.7399 25.877 19.4774 27.1897 20.7901C28.5025 22.1029 29.24 23.8834 29.24 25.7399C29.24 26.6681 28.8712 27.5584 28.2149 28.2147C27.5585 28.8711 26.6682 29.2399 25.74 29.2399H4.73999C3.81173 29.2399 2.92149 28.8711 2.26512 28.2147C1.60874 27.5584 1.23999 26.6681 1.23999 25.7399Z" stroke="#565656" stroke-opacity="0.8" stroke-width="2.48" stroke-linejoin="round"/>
<path d="M15.24 11.74C18.1395 11.74 20.49 9.38949 20.49 6.48999C20.49 3.5905 18.1395 1.23999 15.24 1.23999C12.3405 1.23999 9.98999 3.5905 9.98999 6.48999C9.98999 9.38949 12.3405 11.74 15.24 11.74Z" stroke="#565656" stroke-opacity="0.8" stroke-width="2.48"/>
</svg>
