<svg width="31" height="31" viewBox="0 0 31 31" fill="none" xmlns="http://www.w3.org/2000/svg">
<path d="M25.6995 26.095L29.1365 29.532M20.4208 28.2865C21.4018 28.2865 22.3732 28.0933 23.2795 27.7179C24.1859 27.3425 25.0094 26.7922 25.703 26.0986C26.3967 25.4049 26.947 24.5814 27.3224 23.6751C27.6978 22.7688 27.891 21.7974 27.891 20.8164C27.891 19.8354 27.6978 18.864 27.3224 17.9577C26.947 17.0514 26.3967 16.2278 25.703 15.5342C25.0094 14.8405 24.1859 14.2903 23.2795 13.9149C22.3732 13.5394 21.4018 13.3462 20.4208 13.3462C18.4396 13.3462 16.5396 14.1333 15.1386 15.5342C13.7377 16.9351 12.9507 18.8352 12.9507 20.8164C12.9507 22.7976 13.7377 24.6977 15.1386 26.0986C16.5396 27.4995 18.4396 28.2865 20.4208 28.2865Z" stroke="white" stroke-width="1.944" stroke-linecap="round" stroke-linejoin="round"/>
<path d="M12.9509 21.1248H16.0418L17.8951 18.6534L20.3679 22.9794L22.2225 20.5067H24.0758M11.2259 27.1318H0.971924V25.9499C0.997898 23.4406 1.98241 21.0362 3.72377 19.2293C5.46513 17.4224 7.83151 16.3498 10.3381 16.2311M10.7827 11.8714C11.4983 11.8714 12.207 11.7304 12.8682 11.4566C13.5294 11.1827 14.1301 10.7813 14.6362 10.2752C15.1422 9.76917 15.5436 9.1684 15.8175 8.50721C16.0914 7.84602 16.2324 7.13737 16.2324 6.4217C16.2324 5.70604 16.0914 4.99739 15.8175 4.3362C15.5436 3.67501 15.1422 3.07424 14.6362 2.56819C14.1301 2.06214 13.5294 1.66072 12.8682 1.38685C12.207 1.11298 11.4983 0.972015 10.7827 0.972015C9.33731 0.972015 7.95116 1.54618 6.92915 2.56819C5.90713 3.59021 5.33297 4.97636 5.33297 6.4217C5.33297 7.86705 5.90713 9.2532 6.92915 10.2752C7.95116 11.2972 9.33731 11.8714 10.7827 11.8714Z" stroke="white" stroke-width="1.944" stroke-linecap="round" stroke-linejoin="round"/>
</svg>
