<svg width="24" height="24" viewBox="0 0 24 24" fill="none" xmlns="http://www.w3.org/2000/svg">
<path d="M5.46429 9.30556V5.63889C5.46429 2.93778 8.27714 0.75 11.75 0.75C15.2229 0.75 18.0357 2.93778 18.0357 5.63889V9.30556M11.75 15.4167C12.1668 15.4167 12.5665 15.2879 12.8612 15.0587C13.1559 14.8295 13.3214 14.5186 13.3214 14.1944C13.3214 13.8703 13.1559 13.5594 12.8612 13.3302C12.5665 13.101 12.1668 12.9722 11.75 12.9722C11.3332 12.9722 10.9335 13.101 10.6388 13.3302C10.3441 13.5594 10.1786 13.8703 10.1786 14.1944C10.1786 14.5186 10.3441 14.8295 10.6388 15.0587C10.9335 15.2879 11.3332 15.4167 11.75 15.4167ZM11.75 15.4167V19.0833M3.26429 9.30556H20.2357C21.6186 9.30556 22.75 10.1856 22.75 11.2611V19.8167C22.75 21.43 21.0529 22.75 18.9786 22.75H4.52143C2.44714 22.75 0.75 21.43 0.75 19.8167V11.2611C0.75 10.1856 1.88143 9.30556 3.26429 9.30556Z" stroke="#565656" stroke-width="1.5" stroke-miterlimit="10" stroke-linecap="round" stroke-linejoin="round"/>
</svg>
