<svg width="22" height="24" viewBox="0 0 22 24" fill="none" xmlns="http://www.w3.org/2000/svg">
<path d="M18.2044 2.3945C16.1022 1.3594 13.5278 0.75 10.75 0.75C7.97222 0.75 5.39889 1.3594 3.29556 2.3945C2.26444 2.9027 1.74889 3.1568 1.25 3.9554C0.751111 4.754 0.75 5.5273 0.75 7.0728V10.9118C0.75 17.1631 5.79667 20.6391 8.72 22.1274C9.53556 22.5421 9.94222 22.75 10.75 22.75C11.5578 22.75 11.9644 22.5421 12.78 22.1274C15.7022 20.638 20.75 17.162 20.75 10.9107V7.0728C20.75 5.5273 20.75 4.754 20.25 3.9554C19.75 3.1568 19.2356 2.9027 18.2044 2.3945Z" stroke="#565656" stroke-width="1.5" stroke-linecap="round" stroke-linejoin="round"/>
<path d="M10.7503 8.44999V9.54999M9.63916 8.99999C9.63916 9.29173 9.75622 9.57152 9.9646 9.77781C10.173 9.9841 10.4556 10.1 10.7503 10.1C11.045 10.1 11.3276 9.9841 11.5359 9.77781C11.7443 9.57152 11.8614 9.29173 11.8614 8.99999C11.8614 8.70826 11.7443 8.42847 11.5359 8.22218C11.3276 8.01589 11.045 7.89999 10.7503 7.89999C10.4556 7.89999 10.173 8.01589 9.9646 8.22218C9.75622 8.42847 9.63916 8.70826 9.63916 8.99999Z" stroke="#565656" stroke-width="1.5" stroke-linecap="round" stroke-linejoin="round"/>
<path d="M11.5837 13.95H9.91699L10.7503 10.1L11.5837 13.95Z" stroke="#565656" stroke-width="1.5" stroke-linecap="round" stroke-linejoin="round"/>
</svg>
