<svg width="28" height="28" viewBox="0 0 28 28" fill="none" xmlns="http://www.w3.org/2000/svg">
<path d="M13.9415 17.7488C14.9512 17.7488 15.9197 17.3477 16.6337 16.6336C17.3477 15.9196 17.7489 14.9512 17.7489 13.9414C17.7489 12.9316 17.3477 11.9632 16.6337 11.2491C15.9197 10.5351 14.9512 10.134 13.9415 10.134C12.9317 10.134 11.9632 10.5351 11.2492 11.2491C10.5352 11.9632 10.134 12.9316 10.134 13.9414C10.134 14.9512 10.5352 15.9196 11.2492 16.6336C11.9632 17.3477 12.9317 17.7488 13.9415 17.7488Z" stroke="#565656" stroke-opacity="0.8" stroke-width="2.5" stroke-linecap="round" stroke-linejoin="round"/>
<path d="M23.6148 11.9044L22.2225 8.54121L24.0945 6.32656L21.5562 3.78828L19.3543 5.67042L15.9187 4.25786L15.1281 1.25H12.6482L11.8461 4.29721L8.48918 5.7123L6.32656 3.78828L3.78828 6.32656L5.63234 8.59705L4.26167 11.9692L1.25 12.6723V15.2105L4.29721 16.0431L5.7123 19.3987L3.78828 21.5562L6.32656 24.0945L8.59959 22.2416L11.907 23.6021L12.6723 26.6328H15.2105L15.9771 23.6034L19.3416 22.2099C19.9026 22.6122 21.5562 24.0945 21.5562 24.0945L24.0945 21.5562L22.2111 19.3353L23.6046 15.9695L26.6328 15.1826V12.6723L23.6148 11.9044Z" stroke="#565656" stroke-opacity="0.8" stroke-width="2.5" stroke-linecap="round" stroke-linejoin="round"/>
</svg>
