<svg width="30" height="30" viewBox="0 0 30 30" fill="none" xmlns="http://www.w3.org/2000/svg">
<path d="M19.6931 10.7413L19.1483 10.1829C18.5829 9.59849 17.9057 9.13375 17.157 8.81635C16.4083 8.49896 15.6034 8.33539 14.7902 8.33539C13.977 8.33539 13.1721 8.49896 12.4234 8.81635C11.6747 9.13375 10.9975 9.59849 10.4321 10.1829C8.02623 12.6467 8.02623 16.6412 10.4321 19.105C10.9975 19.6894 11.6747 20.1542 12.4234 20.4716C13.1721 20.789 13.977 20.9525 14.7902 20.9525C15.6034 20.9525 16.4083 20.789 17.157 20.4716C17.9057 20.1542 18.5829 19.6894 19.1483 19.105C19.8162 18.4179 20.3209 17.5893 20.6249 16.6806C20.929 15.7719 21.0246 14.8065 20.9046 13.8558M19.6931 10.7413H16.4245M19.6931 10.7413L19.6918 7.39502" stroke="white" stroke-width="1.53" stroke-linecap="round" stroke-linejoin="round"/>
<path d="M8.62759 4.11407C10.5003 3.03036 12.6264 2.46141 14.7901 2.46498C21.5972 2.46498 27.1151 7.98288 27.1151 14.79C27.1151 21.5971 21.5972 27.115 14.7901 27.115C7.98299 27.115 2.46509 21.5971 2.46509 14.79C2.46509 12.5456 3.06532 10.4393 4.11417 8.62748" stroke="white" stroke-width="1.53" stroke-linecap="round"/>
</svg>
