<svg width="32" height="32" viewBox="0 0 32 32" fill="none" xmlns="http://www.w3.org/2000/svg">
<path d="M22.5999 32C20.1999 32 19.1999 24.2 19.1999 23.8C18.9999 21.2 17.1999 19.6 15.9999 19.4C14.7999 19.4 13.1999 21.2 12.7999 23.8C12.7999 24.2 11.7999 32 9.39993 32C6.99993 32 5.79993 23.2 5.59993 23.2C5.19993 20.4 5.79993 16.4 5.99993 15.2C5.19993 12.8 2.39993 4 4.99993 1.2C5.99993 0.4 7.19993 0 8.79993 0C9.99993 0 11.3999 0.2 12.7999 0.6C13.9999 0.8 14.9999 1 15.9999 1C16.9999 1 17.9999 0.8 19.1999 0.6C20.5999 0.2 21.9999 0 23.1999 0C24.7999 0 25.9999 0.4 26.7999 1.4C29.3999 4.2 26.5999 13 25.7999 15.4C25.9999 16.4 26.5999 20.4 26.1999 23.2C26.3999 23.2 25.1999 32 22.5999 32ZM15.9999 17.4C18.5999 17.6 20.7999 20.2 21.1999 23.6C21.3999 26 22.1999 28.4 22.5999 29.4C23.1999 28.2 23.9999 25.2 24.3999 22.8C24.7999 20 23.9999 15.4 23.9999 15.4V15C25.3999 10.8 26.7999 4.4 25.5999 2.8C24.9999 2.2 24.1999 2 23.1999 2C22.1999 2 20.7999 2.2 19.5999 2.6C18.3999 2.8 17.1999 3 15.9999 3C14.7999 3 13.5999 2.8 12.3999 2.6C11.1999 2.2 9.79993 2 8.79993 2C7.79993 2 6.99993 2.2 6.59993 2.8C5.19993 4.2 6.59993 10.8 8.19993 15V15.4C8.19993 15.4 7.39993 20 7.79993 22.8C8.19993 25.2 8.99993 28.2 9.59993 29.4C9.99993 28.2 10.7999 26 10.9999 23.6C11.1999 20.4 13.3999 17.6 15.9999 17.4Z" fill="white"/>
</svg>
