<svg width="28" height="28" viewBox="0 0 28 28" fill="none" xmlns="http://www.w3.org/2000/svg">
<path d="M23.8 2.8H21V1.4C21 1.0287 20.8525 0.672601 20.59 0.41005C20.3274 0.1475 19.9713 0 19.6 0C19.2287 0 18.8726 0.1475 18.6101 0.41005C18.3475 0.672601 18.2 1.0287 18.2 1.4V2.8H9.8V1.4C9.8 1.0287 9.6525 0.672601 9.38995 0.41005C9.1274 0.1475 8.7713 0 8.4 0C8.0287 0 7.6726 0.1475 7.41005 0.41005C7.1475 0.672601 7 1.0287 7 1.4V2.8H4.2C3.08609 2.8 2.0178 3.2425 1.23015 4.03015C0.442499 4.8178 0 5.88609 0 7V23.8C0 24.9139 0.442499 25.9822 1.23015 26.7698C2.0178 27.5575 3.08609 28 4.2 28H23.8C24.9139 28 25.9822 27.5575 26.7698 26.7698C27.5575 25.9822 28 24.9139 28 23.8V7C28 5.88609 27.5575 4.8178 26.7698 4.03015C25.9822 3.2425 24.9139 2.8 23.8 2.8ZM25.2 23.8C25.2 24.1713 25.0525 24.5274 24.7899 24.7899C24.5274 25.0525 24.1713 25.2 23.8 25.2H4.2C3.8287 25.2 3.4726 25.0525 3.21005 24.7899C2.9475 24.5274 2.8 24.1713 2.8 23.8V14H25.2V23.8ZM25.2 11.2H2.8V7C2.8 6.6287 2.9475 6.2726 3.21005 6.01005C3.4726 5.7475 3.8287 5.6 4.2 5.6H7V7C7 7.3713 7.1475 7.7274 7.41005 7.98995C7.6726 8.2525 8.0287 8.4 8.4 8.4C8.7713 8.4 9.1274 8.2525 9.38995 7.98995C9.6525 7.7274 9.8 7.3713 9.8 7V5.6H18.2V7C18.2 7.3713 18.3475 7.7274 18.6101 7.98995C18.8726 8.2525 19.2287 8.4 19.6 8.4C19.9713 8.4 20.3274 8.2525 20.59 7.98995C20.8525 7.7274 21 7.3713 21 7V5.6H23.8C24.1713 5.6 24.5274 5.7475 24.7899 6.01005C25.0525 6.2726 25.2 6.6287 25.2 7V11.2Z" fill="#565656" fill-opacity="0.83"/>
</svg>
