<svg width="30" height="19" viewBox="0 0 30 19" fill="none" xmlns="http://www.w3.org/2000/svg">
<path fill-rule="evenodd" clip-rule="evenodd" d="M14.6667 17.0667C20.0453 17.0667 24.9147 14.0667 27.5307 9.33333C24.9147 4.6 20.0453 1.6 14.6667 1.6C9.288 1.6 4.41867 4.6 1.80267 9.33333C4.41867 14.0667 9.288 17.0667 14.6667 17.0667ZM14.6667 0C21.0773 0 26.6293 3.79733 29.3333 9.33333C26.6293 14.8693 21.0773 18.6667 14.6667 18.6667C8.256 18.6667 2.704 14.8693 0 9.33333C2.704 3.79733 8.256 0 14.6667 0ZM14.6667 13.0667C15.6568 13.0667 16.6064 12.6733 17.3065 11.9732C18.0067 11.2731 18.4 10.3235 18.4 9.33333C18.4 8.34319 18.0067 7.3936 17.3065 6.69347C16.6064 5.99333 15.6568 5.6 14.6667 5.6C13.6765 5.6 12.7269 5.99333 12.0268 6.69347C11.3267 7.3936 10.9333 8.34319 10.9333 9.33333C10.9333 10.3235 11.3267 11.2731 12.0268 11.9732C12.7269 12.6733 13.6765 13.0667 14.6667 13.0667ZM14.6667 14.6667C13.2522 14.6667 11.8956 14.1048 10.8954 13.1046C9.89524 12.1044 9.33333 10.7478 9.33333 9.33333C9.33333 7.91885 9.89524 6.56229 10.8954 5.5621C11.8956 4.5619 13.2522 4 14.6667 4C16.0812 4 17.4377 4.5619 18.4379 5.5621C19.4381 6.56229 20 7.91885 20 9.33333C20 10.7478 19.4381 12.1044 18.4379 13.1046C17.4377 14.1048 16.0812 14.6667 14.6667 14.6667Z" fill="white"/>
</svg>
