<svg width="20" height="20" viewBox="0 0 20 20" fill="none" xmlns="http://www.w3.org/2000/svg">
<circle cx="10" cy="10" r="9.75" stroke="#C7080C" stroke-width="0.5"/>
<path d="M8.27848 2C7.47276 2 6.70004 2.32473 6.13031 2.90275C5.56058 3.48077 5.24051 4.26474 5.24051 5.08218C5.24051 5.89963 5.56058 6.6836 6.13031 7.26162C6.70004 7.83964 7.47276 8.16437 8.27848 8.16437C9.0842 8.16437 9.85692 7.83964 10.4267 7.26162C10.9964 6.6836 11.3165 5.89963 11.3165 5.08218C11.3165 4.26474 10.9964 3.48077 10.4267 2.90275C9.85692 2.32473 9.0842 2 8.27848 2ZM5.03797 9.8082C4.23225 9.8082 3.45953 10.1329 2.8898 10.711C2.32007 11.289 2 12.0729 2 12.8904V13.8668C2 14.4865 2.44233 15.0142 3.04506 15.1137C4.83544 15.4104 6.64446 15.5542 8.45347 15.5444C8.57985 15.5435 8.656 15.4013 8.59443 15.2896C8.1202 14.4312 7.87189 13.4634 7.87342 12.4794C7.87342 11.8326 7.97873 11.2104 8.17316 10.6301C8.18157 10.6045 8.18402 10.5772 8.1803 10.5504C8.17658 10.5237 8.16681 10.4981 8.15174 10.4758C8.13668 10.4536 8.11673 10.4351 8.09346 10.4219C8.07019 10.4088 8.04423 10.4013 8.01762 10.4C7.4866 10.3757 6.96123 10.279 6.4557 10.1123L5.75413 9.87889C5.61193 9.83261 5.46356 9.80877 5.31423 9.8082H5.03797ZM14.1519 11.2466C14.1519 11.0831 14.0879 10.9263 13.9739 10.8107C13.86 10.6951 13.7054 10.6301 13.5443 10.6301C13.3832 10.6301 13.2286 10.6951 13.1147 10.8107C13.0007 10.9263 12.9367 11.0831 12.9367 11.2466V12.7038C12.9367 12.9011 13.0299 13.086 13.187 13.2019L13.9972 13.8002C14.1276 13.8964 14.2903 13.936 14.4495 13.9104C14.6087 13.8848 14.7514 13.7961 14.8462 13.6638C14.9409 13.5315 14.98 13.3664 14.9548 13.2049C14.9296 13.0433 14.8421 12.8986 14.7117 12.8024L14.1519 12.3898V11.2466Z" fill="#C7080C"/>
<path fill-rule="evenodd" clip-rule="evenodd" d="M13.5446 17C14.7263 17 15.8596 16.5237 16.6952 15.676C17.5308 14.8282 18.0003 13.6784 18.0003 12.4795C18.0003 11.2805 17.5308 10.1307 16.6952 9.28296C15.8596 8.43519 14.7263 7.95892 13.5446 7.95892C12.3628 7.95892 11.2295 8.43519 10.3939 9.28296C9.5583 10.1307 9.08887 11.2805 9.08887 12.4795C9.08887 13.6784 9.5583 14.8282 10.3939 15.676C11.2295 16.5237 12.3628 17 13.5446 17ZM13.5446 15.7671C14.404 15.7671 15.2282 15.4207 15.8359 14.8042C16.4437 14.1876 16.7851 13.3514 16.7851 12.4795C16.7851 11.6075 16.4437 10.7713 15.8359 10.1547C15.2282 9.53817 14.404 9.1918 13.5446 9.1918C12.6851 9.1918 11.8609 9.53817 11.2532 10.1547C10.6455 10.7713 10.3041 11.6075 10.3041 12.4795C10.3041 13.3514 10.6455 14.1876 11.2532 14.8042C11.8609 15.4207 12.6851 15.7671 13.5446 15.7671Z" fill="#C7080C"/>
</svg>
